<svg xmlns="http://www.w3.org/2000/svg" viewBox="0 0 1920 1080" style="background-color: #000;">
  <defs>
    <filter id="glow"><feGaussianBlur stdDeviation="4" result="coloredBlur"/><feMerge><feMergeNode in="coloredBlur"/><feMergeNode in="SourceGraphic"/></feMerge></filter>
    <filter id="strongGlow"><feGaussianBlur stdDeviation="8" result="coloredBlur"/><feMerge><feMergeNode in="coloredBlur"/><feMergeNode in="SourceGraphic"/></feMerge></filter>
    
    <clipPath id="roadMask">
        <path d="M 960 540 L 1920 1080 L 0 1080 Z" />
    </clipPath>

    <g id="palmAsset">
        <path d="M 0,0 Q 5,-100 0,-400" fill="none" stroke="#00ff41" stroke-width="6" opacity="0.9"/>
        <line x1="-6" y1="-50" x2="6" y2="-50" stroke="#00ff41" stroke-width="2" opacity="0.7"/>
        <line x1="-5" y1="-100" x2="5" y2="-100" stroke="#00ff41" stroke-width="2" opacity="0.7"/>
        <line x1="-4" y1="-150" x2="4" y2="-150" stroke="#00ff41" stroke-width="2" opacity="0.7"/>
        <line x1="-3" y1="-200" x2="3" y2="-200" stroke="#00ff41" stroke-width="2" opacity="0.7"/>
        <line x1="-2" y1="-250" x2="2" y2="-250" stroke="#00ff41" stroke-width="2" opacity="0.7"/>
        <line x1="-2" y1="-300" x2="2" y2="-300" stroke="#00ff41" stroke-width="2" opacity="0.7"/>
        <g transform="translate(0, -400)">
            <path d="M 0,0 Q -60,-20 -120,10" fill="none" stroke="#00ff41" stroke-width="3"/>
            <path d="M 0,0 Q -50,-40 -100,-20" fill="none" stroke="#00ff41" stroke-width="3"/>
            <path d="M 0,0 Q -30,-60 -60,-80" fill="none" stroke="#00ff41" stroke-width="3"/>
            <path d="M 0,0 Q 60,-20 120,10" fill="none" stroke="#00ff41" stroke-width="3"/>
            <path d="M 0,0 Q 50,-40 100,-20" fill="none" stroke="#00ff41" stroke-width="3"/>
            <path d="M 0,0 Q 30,-60 60,-80" fill="none" stroke="#00ff41" stroke-width="3"/>
            <path d="M 0,0 Q 0,-70 0,-110" fill="none" stroke="#00ff41" stroke-width="3"/>
        </g>
    </g>

    <style>
      @keyframes drive {
        0% { transform: translateY(0) scale(1); opacity: 0; }
        10% { opacity: 0.8; } /* Aparece suave */
        100% { transform: translateY(400px) scale(3); opacity: 0; } /* Cresce muito mais */
      }
      
      #stripes1, #stripes2 {
        opacity: 0.8;
        transform-origin: 960px 540px; /* Ponto de fuga exato */
      }
      
      .moving #stripes1, .moving #stripes2 {
        animation: drive 3s linear infinite; /* Mais lento e suave */
      }
      .moving #stripes2 { animation-delay: -1.5s; }
    </style>
  </defs>
  
  <rect width="1920" height="1080" fill="#000000"/>

  <g id="stars" fill="#FFF" opacity="0.8">
     <circle cx="200" cy="200" r="1.5" opacity="0.8"/><circle cx="500" cy="100" r="1" opacity="0.6"/>
     <circle cx="1500" cy="150" r="1.5" opacity="0.8"/><circle cx="1200" cy="300" r="1" opacity="0.5"/><circle cx="900" cy="50" r="1.5" opacity="0.9"/>
  </g>

  <g id="mountains" opacity="0.5" transform="translate(0, 540)" filter="url(#glow)">
     <path d="M 0,0 L 200,-150 L 400,-50 L 600,-200 L 960,-50 L 1320,-200 L 1520,-50 L 1720,-150 L 1920,0" fill="none" stroke="#00ff41" stroke-width="2" />
     <path d="M 200,-150 L 200,0" stroke="#00ff41" stroke-width="0.5" opacity="0.3"/><path d="M 600,-200 L 600,0" stroke="#00ff41" stroke-width="0.5" opacity="0.3"/><path d="M 1320,-200 L 1320,0" stroke="#00ff41" stroke-width="0.5" opacity="0.3"/>
  </g>

  <g id="roadGrid" filter="url(#glow)">
    
    <g id="static-grid">
        <line x1="960" y1="1080" x2="960" y2="540" stroke="#00ff41" stroke-width="4" filter="url(#strongGlow)" opacity="1"/>
        <line x1="0" y1="1080" x2="960" y2="540" stroke="#00ff41" stroke-width="3" opacity="0.8"/> 
        <line x1="1920" y1="1080" x2="960" y2="540" stroke="#00ff41" stroke-width="3" opacity="0.8"/> 
        
        <line x1="320" y1="1080" x2="960" y2="540" stroke="#00ff41" stroke-width="1.5" opacity="0.4"/>
        <line x1="640" y1="1080" x2="960" y2="540" stroke="#00ff41" stroke-width="1.5" opacity="0.4"/>
        <line x1="1600" y1="1080" x2="960" y2="540" stroke="#00ff41" stroke-width="1.5" opacity="0.4"/>
        <line x1="1280" y1="1080" x2="960" y2="540" stroke="#00ff41" stroke-width="1.5" opacity="0.4"/>
    </g>

    <g clip-path="url(#roadMask)">
        <g id="stripes1" stroke="#00ff41" stroke-width="2" opacity="0.7">
            <line x1="0" y1="550" x2="1920" y2="550" stroke-width="1"/>
            <line x1="0" y1="580" x2="1920" y2="580" stroke-width="1"/>
            <line x1="0" y1="620" x2="1920" y2="620" /> 
            <line x1="0" y1="680" x2="1920" y2="680" /> 
            <line x1="0" y1="760" x2="1920" y2="760" /> 
            <line x1="0" y1="880" x2="1920" y2="880" /> 
        </g>
        
        <g id="stripes2" stroke="#00ff41" stroke-width="2" opacity="0.7">
            <line x1="0" y1="550" x2="1920" y2="550" stroke-width="1"/>
            <line x1="0" y1="580" x2="1920" y2="580" stroke-width="1"/>
            <line x1="0" y1="620" x2="1920" y2="620" /> 
            <line x1="0" y1="680" x2="1920" y2="680" /> 
            <line x1="0" y1="760" x2="1920" y2="760" /> 
            <line x1="0" y1="880" x2="1920" y2="880" /> 
        </g>
    </g>
  </g>

  <g transform="translate(320, 900) scale(1.0)" filter="url(#glow)"><use href="#palmAsset" /></g>
  <g transform="translate(1600, 900) scale(1.0) scale(-1, 1)" filter="url(#glow)"><use href="#palmAsset" /></g>
  <g transform="translate(586, 750) scale(0.6)" filter="url(#glow)"><use href="#palmAsset" /></g>
  <g transform="translate(1334, 750) scale(0.6) scale(-1, 1)" filter="url(#glow)"><use href="#palmAsset" /></g>
  <g transform="translate(764, 650) scale(0.35)" filter="url(#glow)"><use href="#palmAsset" /></g>
  <g transform="translate(1156, 650) scale(0.35) scale(-1, 1)" filter="url(#glow)"><use href="#palmAsset" /></g>
</svg>